<?xml version="1.0" standalone="no"?>
<!DOCTYPE svg PUBLIC "-//W3C//DTD SVG 20010904//EN"
 "http://www.w3.org/TR/2001/REC-SVG-20010904/DTD/svg10.dtd">
<svg version="1.0" xmlns="http://www.w3.org/2000/svg"
 width="600.000000pt" height="600.000000pt" viewBox="0 0 600.000000 600.000000"
 preserveAspectRatio="xMidYMid meet">
<metadata>
Created by potrace 1.14, written by Peter Selinger 2001-2017
</metadata>
<g transform="translate(0.000000,600.000000) scale(0.100000,-0.100000)"
fill="#000000" stroke="none">
<path d="M2765 5988 c-453 -34 -927 -187 -1315 -423 -678 -412 -1165 -1071
-1359 -1840 -27 -107 -71 -365 -69 -407 1 -19 -1 -39 -4 -44 -14 -22 -19 -331
-8 -475 31 -416 132 -786 314 -1148 284 -567 761 -1044 1326 -1327 130 -65
349 -156 360 -149 5 3 10 1 12 -3 8 -21 277 -92 478 -126 966 -164 1943 151
2632 850 286 290 489 599 647 982 45 109 101 273 106 312 1 8 5 22 8 30 12 30
36 137 56 250 100 559 39 1143 -171 1654 -313 762 -892 1341 -1653 1654 -274
112 -632 196 -883 207 -57 3 -107 7 -112 10 -11 7 -239 3 -365 -7z"/>
</g>
</svg>
